<svg xmlns="http://www.w3.org/2000/svg" width="16" height="16" viewBox="0 0 16 16"><g fill="#95999D" fill-rule="evenodd"><path d="M1 11.009c0 .55.396 1.222.872 1.494l5.256 3.003c.481.275.872.052.872-.497V9.5c0-.55-.396-1.223-.872-1.495L1.872 5.003C1.391 4.728 1 4.951 1 5.501v5.508zm15 0c0 .55-.396 1.222-.872 1.494l-5.256 3.003c-.481.275-.872.052-.872-.497V9.5c0-.55.396-1.223.872-1.495l5.256-3.003c.481-.275.872-.052.872.498v5.508zM9.35 6.982c-.47.288-1.237.284-1.7 0l-4.8-2.954c-.47-.29-.463-.732.027-.995L7.623.477c.485-.261 1.264-.264 1.754 0l4.746 2.556c.485.26.49.71.027.995l-4.8 2.954z"/><path d="M1 11.009c0 .55.396 1.222.872 1.494l5.256 3.003c.481.275.872.052.872-.497V9.5c0-.55-.396-1.223-.872-1.495L1.872 5.003C1.391 4.728 1 4.951 1 5.501v5.508zm15 0c0 .55-.396 1.222-.872 1.494l-5.256 3.003c-.481.275-.872.052-.872-.497V9.5c0-.55.396-1.223.872-1.495l5.256-3.003c.481-.275.872-.052.872.498v5.508zM9.35 6.982c-.47.288-1.237.284-1.7 0l-4.8-2.954c-.47-.29-.463-.732.027-.995L7.623.477c.485-.261 1.264-.264 1.754 0l4.746 2.556c.485.26.49.71.027.995l-4.8 2.954z"/></g></svg>