<svg xmlns="http://www.w3.org/2000/svg" viewBox="0 0 40 40"><g fill="none" fill-rule="evenodd"><path fill="#ACF5F7" d="M2.5 1.997C2.5.894 3.403 0 4.508 0h28.484C34.1 0 35 .892 35 1.997v36.006A2.005 2.005 0 0132.992 40H4.508A2.001 2.001 0 012.5 38.003V1.997z"/><rect width="18.75" height="7.5" x="11.25" y="7.5" fill="#0DCBCF" rx="1"/><path fill="#0DCBCF" d="M38.548 19.936L26.174 32.312l-3.598 1.35a1 1 0 01-1.288-1.288l1.35-3.598 12.375-12.374 3.535 3.534zm-2.298-4.772a2 2 0 012.829 0l.707.707a2 2 0 010 2.829l-.355.353-3.534-3.535.353-.354z"/><g fill="#0DCBCF" transform="translate(0 5)"><rect width="6.25" height="3.75" rx="1.875"/><rect width="6.25" height="3.75" y="8.75" rx="1.875"/><rect width="6.25" height="3.75" y="17.5" rx="1.875"/><rect width="6.25" height="3.75" y="26.25" rx="1.875"/></g></g></svg>