<svg version="1.1" id="Calque_1" xmlns="http://www.w3.org/2000/svg" x="0" y="0" viewBox="0 0 32 32" xml:space="preserve"><style>.st1{fill-rule:evenodd;clip-rule:evenodd;fill:#0dcbcf}</style><path d="M2 2c0-1.1.9-2 2-2h22c1.1 0 2 .9 2 2v28c0 1.1-.9 2-2 2H4c-1.1 0-2-.9-2-2V2z" fill-rule="evenodd" clip-rule="evenodd" fill="#acf5f7"/><path class="st1" d="M10 6h13c.6 0 1 .4 1 1v4c0 .6-.4 1-1 1H10c-.6 0-1-.4-1-1V7c0-.6.4-1 1-1z"/><path class="st1" d="M1.5 0h2C4.3 0 5 .7 5 1.5S4.3 3 3.5 3h-2C.7 3 0 2.3 0 1.5S.7 0 1.5 0zM1.5 7h2C4.3 7 5 7.7 5 8.5S4.3 10 3.5 10h-2C.7 10 0 9.3 0 8.5S.7 7 1.5 7zM1.5 14h2c.8 0 1.5.7 1.5 1.5S4.3 17 3.5 17h-2C.7 17 0 16.3 0 15.5S.7 14 1.5 14zM1.5 21h2c.8 0 1.5.7 1.5 1.5S4.3 24 3.5 24h-2C.7 24 0 23.3 0 22.5S.7 21 1.5 21z" transform="translate(0 4)"/><path class="st1" d="M31.4 15.2l-2.8-2.8c.8-.8 2-.8 2.8 0s.8 2.1 0 2.8zm-.7.7l-9.9 9.9-2.5.9c-.5.2-1.1-.1-1.3-.6-.1-.2-.1-.5 0-.7l1-2.4 9.9-9.9 2.8 2.8z"/></svg>