<svg fill="none" xmlns="http://www.w3.org/2000/svg" viewBox="0 0 32 32"><rect width="32" height="32" rx="10.568" fill="url(#paint0_linear_12592_81)"/><g filter="url(#filter0_d_12592_81)"><path fill-rule="evenodd" clip-rule="evenodd" d="M15.991 5.711c-1.434 0-2.627.914-2.885 2.122h-3.093a3.323 3.323 0 00-3.323 3.322v11.957a3.323 3.323 0 003.323 3.323H21.97a3.323 3.323 0 003.323-3.323V11.156a3.323 3.323 0 00-3.323-3.323h-3.093c-.258-1.208-1.452-2.122-2.886-2.122zm2.519 6.572a.95.95 0 011.342 0l.85.85a.95.95 0 010 1.343l-.829.829-2.192-2.193.829-.829zm-1.521 1.522l2.192 2.192-6.161 6.161a.237.237 0 01-.168.07h-1.857a.237.237 0 01-.237-.238v-1.856c0-.063.025-.124.07-.168l6.161-6.162z" fill="#fff"/></g><defs><linearGradient id="paint0_linear_12592_81" x1="5.548" y1="29.127" x2="30.188" y2="1.958" gradientUnits="userSpaceOnUse"><stop offset=".23" stop-color="#FFB81E"/><stop offset="1" stop-color="#FFE098"/></linearGradient><filter id="filter0_d_12592_81" x="5.504" y="4.762" width="20.976" height="23.097" filterUnits="userSpaceOnUse" color-interpolation-filters="sRGB"><feFlood flood-opacity="0" result="BackgroundImageFix"/><feColorMatrix in="SourceAlpha" values="0 0 0 0 0 0 0 0 0 0 0 0 0 0 0 0 0 0 127 0" result="hardAlpha"/><feOffset dy=".237"/><feGaussianBlur stdDeviation=".593"/><feComposite in2="hardAlpha" operator="out"/><feColorMatrix values="0 0 0 0 0 0 0 0 0 0 0 0 0 0 0 0 0 0 0.1 0"/><feBlend in2="BackgroundImageFix" result="effect1_dropShadow_12592_81"/><feBlend in="SourceGraphic" in2="effect1_dropShadow_12592_81" result="shape"/></filter></defs></svg>