<svg xmlns="http://www.w3.org/2000/svg" xmlns:xlink="http://www.w3.org/1999/xlink" width="171" height="168" viewBox="0 0 171 168">
    <defs>
        <path id="a" d="M.02.12h36.532v20.674H.02z"/>
    </defs>
    <g fill="none" fill-rule="evenodd">
        <path fill="#0DCBCF" d="M48.367 47.28c3.795-4.135 9.702 2.27 5.938 6.374-8.105 8.832-11.21 22.848-5.617 33.864 6.83 13.453 25.138 8.377 36.387 4.37 5.26-1.871 7.054 6.655 1.834 8.515-15.343 5.464-37.282 8.714-45.942-8.858-7.276-14.767-3.455-32.433 7.4-44.265"/>
        <path fill="#D6FAFB" d="M59.57 16.922c.739-4.162 1.797-8.167 3.764-11.417C66.807-.21 73.009-.675 79.69.561c3.047.47 76.99 11.012 78.873 11.76 6.957 2.843 7.343 8.129 5.837 14.148-.141.971-20.067 84.443-21.43 88.854-1.852 5.978-4.906 11.375-10.609 11.973-5.714.623-75.27-18.403-78.5-19.534-3.954-1.39-5.72-3.632-6.159-6.323-.603-1.443-.376-3.088-.067-5.144.8-5.412 8.228-69.79 11.935-79.373"/>
        <path fill="#FFF" d="M65.047 19.073S64.561 3.301 79.004 5.122c14.443 1.819 89.593 13.951 89.593 13.951v9.972l-15.17 7.281-88.38-17.253z"/>
        <path fill="#ACF5F7" d="M53.622 31.458c.246-4.25.829-8.372 2.413-11.844 2.795-6.122 8.927-7.314 15.747-6.87 3.103.105 6.245.706 8.959 1.155 13.33 2.21 60.933 9.536 62.437 9.936.853.239 3.242 1.012 3.93 1.337 5.173 2.422 4.26 6.643 3.56 12.102-.023.988-10.066 86.694-10.903 91.263-1.155 6.187-3.561 11.933-9.185 13.21-5.636 1.297-77.342-9.496-80.695-10.235-4.111-.928-6.143-2.958-6.897-5.597-.781-1.368-.738-3.034-.675-5.12.157-5.506 8.735-79.333 11.309-89.337"/>
        <path fill="#79ECEE" d="M134.818 99.416c4.069-24.17 8.504-48.43 11.948-72.677.037-.293.209-1.305.35-1.515-.04-.744 2.317.264 4.506.067.068 0 .925-.114.992-.114.716-.138 1.42-.29 2.149-.552 3.554-1.285 4.98-4.27 4.938-7.584-.046-2.971-2.376-4.28-2.285-5.071.047-.427 2.619.902 2.915 1 .405.133 3.131 1.892 4.372 4.065 1.249 2.19.856 5.296.785 8.049-.244 9.277-8.008 66.518-9.51 78.49.026.153-.358 3.1-.546 4.417-.38 2.901-.772 5.807-1.182 8.707-.319 2.271-1.653 15.153-1.929 15.747-3.391 7.361-12.892 9.872-20.513 9.34-.434.025-.851-.016-1.524-.102-.844-.108-2.024.034-3.35-.235.145-2.458 5.937-30.472 7.884-42.032"/>
        <path fill="#FFF" d="M98.24 56.354c3.65-6.425 11.472-9.96 18.354-7.212a10.488 10.488 0 0 1 4.359 2.129c.117.074.22.173.33.253.099.086.2.171.29.253a10.141 10.141 0 0 1 3.012 3.703c.14.243.285.483.408.733.028.087.095.136.12.22.089.233.126.462.208.7.4 1.024.667 2.088.785 3.213.399 2.397.348 4.8-.468 7.371-1.431 4.512-6.871 6.769-11.066 7.466-3.062.503-6.549-.22-9.546-1.52-4.286-1.86-5.61-4.269-6.733-7.469-1.146-3.274-1.878-6.632-.054-9.84M57.875 49.863c1.7-3.323 4.417-5.416 7.697-6.62.072-.048.117-.104.197-.162 2.037-1.45 4.806-2 7.4-1.642 6.076.399 11.603 5.645 13.426 11.64.926 3.055.816 6.827-.747 9.66-2.345 4.249-6.24 6.338-10.86 7.305-7.715 1.625-16.183-3.686-18.103-11.22-.745-2.904-.38-6.293.99-8.961"/>
        <path fill="#FFF" d="M97.573 60.005c.542 1.111 2.285 1.832 3.325 1.161 1.116-.715 1.315-2.42.479-3.462-.451-.557-1.063-.82-1.666-.79a.296.296 0 0 0-.235-.062c-1.392.108-2.635 1.68-1.903 3.153M82.511 58.042c.543 1.11 2.287 1.83 3.325 1.159 1.12-.72 1.318-2.42.479-3.46-.453-.558-1.059-.82-1.668-.791a.295.295 0 0 0-.227-.065c-1.4.11-2.637 1.679-1.909 3.157"/>
        <path fill="#FFF" d="M83.12 55.648c.916-3.33 5.387-5.305 8.553-5.085 3.765.266 8.59 3.494 9.277 7.454.373 2.132-3.201 2.492-3.554.466-.782-4.47-8.893-6.614-10.702-2.003-.036.357-.226.713-.675 1.002-.022.023-.05.037-.07.05-1.412.921-3.292-.203-2.83-1.884"/>
        <path fill="#79ECEE" d="M130.887 48.194c1.972 3.09 7.333 4.648 10.183 2.337 3.064-2.497 3.1-7.587.281-10.373-1.511-1.495-3.399-2.072-5.16-1.798a1.058 1.058 0 0 0-.718-.108c-4.064.775-7.221 5.81-4.586 9.942M127.85 77.94c1.733 2.724 6.45 4.093 8.956 2.058 2.697-2.199 2.723-6.673.244-9.122-1.327-1.316-2.985-1.825-4.536-1.582a.938.938 0 0 0-.63-.094c-3.578.679-6.353 5.109-4.034 8.74M123.467 106.767c1.607 2.793 6.26 4.374 8.854 2.454 2.796-2.074 3.021-6.54.654-9.102-1.267-1.375-2.901-1.949-4.46-1.781a.948.948 0 0 0-.627-.127c-3.603.52-6.573 4.823-4.42 8.556"/>
        <path fill="#D6FAFB" d="M134.92 71.16l.384-.004c3.34-.056 4.832 2.564 4.435 4.87.819 3.035 6.732 4.083 9.188 4.55 3.327.638 6.204.138 7.935-1.695a5.354 5.354 0 0 0 .518-.67c.964-1.44 1.663-2.972 2.485-4.46.207-1.606.413-3.208.626-4.844 1.045.01 7.44.93 7.404 5.085-.061 7.397-4.113 11.963-9.873 13.901.007-.076.018-.156.03-.233a.106.106 0 0 0-.042.013l.012.22c-2.516.844-5.377 1.193-8.431 1.044-7.434-.364-19.518-4.398-19.253-13.56.07-2.467 2.191-4.176 4.582-4.217M155.979 103.575c.026.15-.358 3.097-.548 4.415-.379 2.903-.77 5.807-1.182 8.708-.04.298-.1.792-.173 1.41-.423.111-.846.232-1.267.325-9.933 2.216-23.748-2.264-26.83-12.978-1.387-4.823 5.737-6.845 8.28-3.535 3.25 3.006 6.375 4.279 10.726 4.987 2.315.378 9.589 1.174 10.133-1.001l.86-2.331z"/>
        <path fill="#D6FAFB" d="M155.43 107.99c.19-1.318.575-4.264.549-4.415.141-1.139.343-2.691.587-4.57 1.43-.943 3.35-1.181 4.91-.156 4.028 2.644 5.269 6.247 3.534 10.833-1.791 4.722-6.312 7.18-10.936 8.425.075-.617.134-1.11.175-1.409.412-2.901.803-5.805 1.182-8.708"/>
        <path fill="#0DCBCF" d="M97.295 86.818c.143-.42-.082-.821-.543-.907l-15.969-2.926c-.445-.086-.826.224-.826.667 0 0-.792 8.124 7.2 9.59 7.994 1.46 10.138-6.424 10.138-6.424M106.717 66.413a2.628 2.628 0 0 0 2.9-2.325c.148-1.137.803-3.051 3.438-2.757 2.873.313 2.836 2.714 2.758 3.44a2.632 2.632 0 0 0 2.32 2.906 2.635 2.635 0 0 0 2.902-2.328c.367-3.341-1.301-8.563-7.404-9.24-6.1-.67-8.868 4.061-9.233 7.399a2.623 2.623 0 0 0 2.319 2.905M65.97 60.55a2.618 2.618 0 0 0 2.898-2.323c.154-1.135.809-3.045 3.444-2.756 2.873.32 2.836 2.715 2.758 3.446a2.628 2.628 0 0 0 2.324 2.898 2.633 2.633 0 0 0 2.896-2.326c.369-3.336-1.295-8.561-7.399-9.232-6.107-.682-8.87 4.055-9.24 7.395a2.62 2.62 0 0 0 2.319 2.898M7.328 107.186s-4.037-2.086 6.805-8.374c10.108-5.864 7.278 10.253 7.278 10.253l-14.083-1.88z"/>
        <path fill="#DFFCFC" d="M77.122 128.065c-3.962-7.31-6.318-14.535-8.397-21.528-3.496-11.78-4.837-23.725-10.418-35.926-.384-.842-1.51-1.893-2.359-2.092a1247.17 1247.17 0 0 1-45.203-11.481C5.086 55.485.713 55.304.083 59.109c-.007.039-.016.076-.022.12-.14.995-.046 2.243.353 3.81.19.754.696 1.372 1.281 1.841C4.793 75.29 6.898 85.406 10.32 95.907c3.831 11.75 8.712 23.72 12.591 35.483.415 1.26 1.806 2.668 3.07 2.721.323.013.648.028.971.04 3.006 1.149 30.837 7.319 41.229 8.583 4.412.538 18.182 5.133 17.55-.856-.335-3.168-7.048-10.931-8.61-13.813"/>
        <path fill="#0DCBCF" d="M24.169 106.068c-4.748.862-9.072.078-13.23-2.376-3.782-2.232-6.633 3.978-2.878 6.194a24.375 24.375 0 0 0 16.752 2.983c4.29-.779 3.694-7.587-.644-6.801"/>
        <path fill="#0DCBCF" d="M26.43 113.925c-4.822.208-9-1.152-12.787-4.147-3.445-2.725-7.11 3.043-3.69 5.747a24.362 24.362 0 0 0 16.193 5.225c4.356-.19 4.689-7.017.284-6.825"/>
        <path fill="#0DCBCF" d="M27.7 121.497c-4.773-.725-8.608-2.867-11.746-6.535-2.856-3.338-7.566 1.615-4.73 4.929a24.372 24.372 0 0 0 14.88 8.249c4.313.653 5.952-5.982 1.595-6.643"/>
        <path fill="#D6FAFB" d="M56.82 163.387c2.634 1.707 9.394 3.19 14.841 3.785 14.866 1.625 35.651.773 44.451-2.186 8.875-2.98 9.27-7.505-13.293-9.77-19.21-1.926-41.628.772-46.423 4.818-1.286 1.083-1.211 2.293.423 3.353"/>
        <path fill="#FFF" d="M85.93 121.501l-8.872-2.495 5.144-7.99 53.966-19.197a4.453 4.453 0 0 1 5.686 2.7l.746 2.099a4.45 4.45 0 0 1-2.702 5.686L85.93 121.5z"/>
        <path fill="#0DCBCF" d="M154.388 66.712c-4.389-3.498-9.232 3.746-4.877 7.216 9.374 7.469 14.612 20.835 10.794 32.583-4.663 14.35-23.538 12.171-35.273 9.956-5.483-1.035-5.935 7.667-.492 8.695 16.003 3.021 38.184 2.835 44.015-15.867 4.9-15.715-1.61-32.577-14.167-42.583"/>
        <path fill="#0DCBCF" d="M117.57 120.966c-.858-.505-1.8-.82-2.724-.954.007-.692-.294-1.44-.896-2.045a5.36 5.36 0 0 0-1.042-.795c.604-.217 1.24-.4 1.767-.57 4.603-1.484-.888-7.006-5.49-5.523-4.248 1.372-8.193 3.504-7.248 7.418.244 1.01 1.247 2.234 2.773 2.788.09.031.177.056.268.09.235 1.784 2.018 3.698 4.6 4.72.32.126.656.225.99.326.556 1.45 2.692 2.89 4.895 2.99 5.026.234 8.746-1.607 9.6-4.766.4-1.491-1.568-3.332-3.883-3.906-1.418-.35-2.69-.218-3.61.227"/>
        <path fill="#0DCBCF" d="M116.74 108.083c-2.338-.522-12.208 2.855-5.111 5.063 1.627.505 1.248.814 2.754 1.558-.564.2-1.05.473-1.4.824-2.277.728-2.681 3.583-1.654 5.93 1.48 3.38 2.415 7.939 7.426 7.805 5.597-.148 12.373-6.007 12.023-9.417-.211-2.065-1.65-5.025-4.013-6.767-1.204-.887-7.684-4.475-10.024-4.996"/>
        <path fill="#0DCBCF" d="M118.038 108.505s-11.852-4.477-13.846-1.858c-1.799 2.363-5.817 10.49-3.131 10.95 2.683.463 10.129-2.62 10.129-2.62l6.848-6.472z"/>
        <g transform="translate(134.244 38.595)">
            <mask id="b" fill="#fff">
                <use xlink:href="#a"/>
            </mask>
            <path fill="#D6FAFB" d="M9.325 7.036c.397 5.93 8.7 6.329 13.777 4.795.42-.158.845-.317 1.23-.505a9.225 9.225 0 0 0 1.389-.872c.082-.06.995-.824 1.133-.954 1.086-1.008 2.065-2.238 2.415-3.433.248-2.072.485-4.087.695-5.947a8.54 8.54 0 0 1 2.63 1.137C34 2.191 34.869 3.2 35.499 4.768c.088.213.125.438.17.665.332.608.553 1.271.557 1.963 1.55 5.622-2.602 9.814-8.58 11.908.032-.244.058-.477.09-.717-.01.004-.02.011-.029.015-.018.233-.03.458-.061.702C17.12 22.994.906 20.164.03 7.036c-.365-5.393 8.932-5.393 9.294 0" mask="url(#b)"/>
        </g>
        <path fill="#ACF5F7" d="M67.018 83.907a4.967 4.967 0 1 1-9.935 0 4.966 4.966 0 0 1 4.967-4.967 4.967 4.967 0 0 1 4.968 4.967M73.57 105.824a4.967 4.967 0 1 1-9.935 0 4.966 4.966 0 0 1 4.966-4.966 4.967 4.967 0 0 1 4.969 4.966M80.564 124.544a4.967 4.967 0 0 1-4.968 4.966 4.966 4.966 0 0 1-4.967-4.966 4.967 4.967 0 1 1 9.935 0"/>
    </g>
</svg>
