<?xml version="1.0" encoding="utf-8"?>
<!-- Generator: Adobe Illustrator 23.0.1, SVG Export Plug-In . SVG Version: 6.00 Build 0)  -->
<svg version="1.1" id="Calque_1" xmlns="http://www.w3.org/2000/svg" xmlns:xlink="http://www.w3.org/1999/xlink" x="0px" y="0px"
	 viewBox="0 0 32 32" style="enable-background:new 0 0 32 32;" xml:space="preserve">
<style type="text/css">
	.st0{fill-rule:evenodd;clip-rule:evenodd;fill:#ACF5F7;}
	.st1{fill-rule:evenodd;clip-rule:evenodd;fill:#0DCBCF;}
</style>
<path class="st0" d="M2,2c0-1.1,0.9-2,2-2h22c1.1,0,2,0.9,2,2v28c0,1.1-0.9,2-2,2H4c-1.1,0-2-0.9-2-2V2z"/>
<path class="st1" d="M10,6h13c0.6,0,1,0.4,1,1v4c0,0.6-0.4,1-1,1H10c-0.6,0-1-0.4-1-1V7C9,6.4,9.4,6,10,6z"/>
<g transform="translate(0 4)">
	<path class="st1" d="M1.5,0h2C4.3,0,5,0.7,5,1.5l0,0C5,2.3,4.3,3,3.5,3h-2C0.7,3,0,2.3,0,1.5l0,0C0,0.7,0.7,0,1.5,0z"/>
	<path class="st1" d="M1.5,7h2C4.3,7,5,7.7,5,8.5l0,0C5,9.3,4.3,10,3.5,10h-2C0.7,10,0,9.3,0,8.5l0,0C0,7.7,0.7,7,1.5,7z"/>
	<path class="st1" d="M1.5,14h2C4.3,14,5,14.7,5,15.5l0,0C5,16.3,4.3,17,3.5,17h-2C0.7,17,0,16.3,0,15.5l0,0C0,14.7,0.7,14,1.5,14z"
		/>
	<path class="st1" d="M1.5,21h2C4.3,21,5,21.7,5,22.5l0,0C5,23.3,4.3,24,3.5,24h-2C0.7,24,0,23.3,0,22.5l0,0C0,21.7,0.7,21,1.5,21z"
		/>
</g>
<path class="st1" d="M31.4,15.2l-2.8-2.8c0.8-0.8,2-0.8,2.8,0S32.2,14.5,31.4,15.2z M30.7,15.9l-9.9,9.9l-2.5,0.9
	c-0.5,0.2-1.1-0.1-1.3-0.6c-0.1-0.2-0.1-0.5,0-0.7L18,23l9.9-9.9C27.9,13.1,30.7,15.9,30.7,15.9z"/>
</svg>
