<svg id="Calque_1" data-name="Calque 1" xmlns="http://www.w3.org/2000/svg" viewBox="0 0 32 32"><title>Plan de travail 1</title><path d="M2,2A2,2,0,0,1,4,0H26a2,2,0,0,1,2,2V30a2,2,0,0,1-2,2H4a2,2,0,0,1-2-2Z" fill="#acf5f7" fill-rule="evenodd"/><path d="M10,6H23a.94.94,0,0,1,1,1v4a.94.94,0,0,1-1,1H10a.94.94,0,0,1-1-1V7A.94.94,0,0,1,10,6Z" fill="#0dcbcf" fill-rule="evenodd"/><path d="M1.5,4h2A1.54,1.54,0,0,1,5,5.5H5A1.54,1.54,0,0,1,3.5,7h-2A1.54,1.54,0,0,1,0,5.5H0A1.54,1.54,0,0,1,1.5,4Z" fill="#0dcbcf" fill-rule="evenodd"/><path d="M1.5,11h2A1.54,1.54,0,0,1,5,12.5H5A1.54,1.54,0,0,1,3.5,14h-2A1.54,1.54,0,0,1,0,12.5H0A1.54,1.54,0,0,1,1.5,11Z" fill="#0dcbcf" fill-rule="evenodd"/><path d="M1.5,18h2A1.54,1.54,0,0,1,5,19.5H5A1.54,1.54,0,0,1,3.5,21h-2A1.54,1.54,0,0,1,0,19.5H0A1.54,1.54,0,0,1,1.5,18Z" fill="#0dcbcf" fill-rule="evenodd"/><path d="M1.5,25h2A1.54,1.54,0,0,1,5,26.5H5A1.54,1.54,0,0,1,3.5,28h-2A1.54,1.54,0,0,1,0,26.5H0A1.54,1.54,0,0,1,1.5,25Z" fill="#0dcbcf" fill-rule="evenodd"/><path d="M31.4,15.2l-2.8-2.8a2,2,0,0,1,2.8,2.8Zm-.7.7-9.9,9.9-2.5.9a1,1,0,0,1-1.3-.6.85.85,0,0,1,0-.7L18,23l9.9-9.9Z" fill="#0dcbcf" fill-rule="evenodd"/></svg>